<?xml version="1.0" standalone="no"?>
<!DOCTYPE svg PUBLIC "-//W3C//DTD SVG 20010904//EN" "http://www.w3.org/TR/2001/REC-SVG-20010904/DTD/svg10.dtd">
<svg xmlns="http://www.w3.org/2000/svg" version="1.0" width="1024.000000pt" height="1024.000000pt" viewBox="0 0 1024.000000 1024.000000" preserveAspectRatio="xMidYMid meet">
<metadata>
Created by potrace 1.16, written by Peter Selinger 2001-2019
<meta name="Producer" content="Online-Convert"/></metadata>
<g transform="translate(0.000000,1024.000000) scale(0.100000,-0.100000)" fill="#000000" stroke="none">
<path d="M5110 8675 c0 -8 -6 -15 -14 -15 -8 0 -16 -4 -18 -8 -3 -8 -203 -142 -212 -142 -3 0 -25 -13 -48 -29 -24 -16 -46 -27 -50 -25 -5 3 -8 1 -8 -5 0 -15 -58 -43 -73 -35 -7 4 -9 3 -4 -1 10 -11 -48 -47 -218 -133 -246 -124 -397 -193 -412 -188 -8 3 -12 2 -9 -3 3 -4 -23 -17 -57 -27 -34 -10 -62 -17 -62 -15 0 2 -22 -9 -49 -23 -27 -14 -56 -26 -65 -26 -9 0 -29 -7 -44 -15 -16 -8 -61 -24 -100 -36 -40 -11 -97 -29 -127 -39 -74 -25 -158 -48 -197 -53 -17 -3 -35 -7 -40 -10 -10 -6 -348 -77 -419 -87 -29 -5 -60 -11 -70 -14 -39 -12 -363 -48 -441 -49 -16 0 -16 -3 -3 -28 8 -13 8 -46 1 -107 -7 -63 -25 -836 -22 -957 0 -5 2 -43 4 -82 4 -63 2 -73 -12 -73 -14 0 -14 -2 -1 -10 15 -9 15 -5 25 -325 3 -104 12 -242 20 -305 24 -206 57 -425 65 -441 5 -9 11 -38 15 -65 3 -27 11 -58 16 -69 5 -11 17 -56 28 -100 33 -141 113 -409 132 -447 11 -21 19 -42 19 -48 0 -5 9 -29 19 -53 10 -23 33 -78 51 -122 48 -117 187 -397 202 -403 4 -2 4 -11 1 -20 -3 -9 -2 -14 2 -10 8 8 29 -21 74 -104 15 -25 58 -93 96 -149 38 -57 70 -106 70 -110 0 -4 13 -17 28 -29 16 -13 26 -28 23 -37 -4 -8 -1 -11 5 -8 6 4 13 -2 16 -14 3 -12 9 -21 13 -21 5 0 30 -28 58 -62 27 -35 67 -81 88 -104 55 -57 79 -88 76 -97 -1 -5 2 -6 7 -3 5 3 20 -9 34 -27 30 -39 201 -211 251 -251 19 -16 33 -33 29 -39 -3 -6 -2 -7 4 -4 6 4 24 -8 41 -26 16 -17 50 -49 73 -69 24 -20 62 -52 83 -70 22 -18 56 -47 75 -64 51 -44 270 -203 335 -243 30 -19 53 -37 51 -41 -2 -4 1 -7 8 -7 7 0 87 -48 177 -108 285 -186 433 -275 461 -275 23 0 163 74 292 155 27 17 99 62 161 100 62 39 125 80 140 92 16 13 35 23 42 23 8 0 14 4 14 9 0 5 30 27 68 49 37 22 81 52 97 66 17 15 48 39 70 54 101 68 249 183 322 249 19 18 40 30 46 26 5 -3 7 -1 4 4 -4 6 9 24 28 39 20 16 62 55 94 87 32 31 64 57 70 57 6 0 11 6 12 13 0 6 18 26 40 44 22 18 39 34 37 36 -3 4 69 76 74 74 2 -1 2 0 1 2 -5 7 112 126 120 123 5 -1 6 2 3 7 -4 5 -2 12 4 16 6 3 42 50 82 103 39 53 83 111 97 129 48 59 60 77 138 198 101 157 116 184 232 420 98 197 172 374 214 507 11 37 23 65 26 63 3 -2 6 7 7 18 1 36 88 337 94 327 3 -5 6 11 6 36 1 24 6 56 12 71 6 16 13 51 16 78 3 28 15 102 26 165 12 63 23 147 25 187 2 40 8 80 13 90 5 10 10 68 11 128 1 61 4 124 6 140 3 17 5 249 6 518 1 356 4 487 13 487 8 0 8 2 -1 8 -8 5 -12 62 -13 187 -1 99 -3 200 -4 225 -2 25 -4 79 -6 122 -1 42 -6 81 -10 87 -3 7 -40 14 -81 17 -94 6 -341 41 -394 56 -22 6 -51 12 -65 13 -14 1 -115 20 -225 43 -182 38 -365 89 -550 155 -38 14 -82 28 -98 31 -15 4 -52 18 -82 31 -29 14 -56 25 -60 25 -3 0 -22 7 -43 16 -20 10 -45 18 -54 20 -9 2 -34 12 -55 23 -21 11 -85 41 -143 66 -150 67 -289 139 -301 158 -3 5 -10 8 -15 8 -5 -1 -31 13 -59 31 -27 18 -52 33 -55 34 -27 5 -158 80 -307 176 -63 40 -81 57 -77 70 4 15 0 17 -28 13 -26 -4 -29 -3 -13 4 19 9 19 10 -2 10 -14 1 -23 -5 -23 -14z m107 -356 c46 -28 88 -47 94 -43 8 4 9 3 5 -4 -3 -6 2 -16 13 -21 29 -16 39 -13 17 4 -11 8 -15 15 -9 15 13 0 39 -30 27 -30 -11 -1 27 -30 39 -30 4 0 5 6 1 13 -4 7 -3 9 2 4 5 -5 9 -13 9 -19 0 -17 228 -138 250 -133 11 3 14 2 7 -1 -18 -8 45 -47 65 -40 9 4 11 2 7 -6 -5 -8 -2 -9 10 -5 10 4 15 3 11 -3 -3 -5 18 -21 47 -34 29 -13 96 -44 148 -68 141 -66 207 -91 221 -82 7 4 9 3 5 -4 -7 -11 29 -26 224 -93 63 -22 123 -38 133 -35 9 2 15 0 12 -4 -6 -10 61 -31 245 -80 199 -52 492 -105 733 -131 l117 -13 0 -536 c-1 -843 -17 -1117 -94 -1535 -66 -361 -171 -674 -347 -1043 -38 -79 -66 -149 -62 -154 3 -6 1 -8 -5 -5 -6 4 -30 -27 -58 -75 -186 -326 -464 -677 -728 -923 -58 -54 -102 -103 -99 -108 3 -6 1 -7 -5 -3 -6 3 -30 -11 -55 -32 -159 -138 -437 -338 -679 -490 -149 -94 -187 -112 -133 -66 l30 26 -33 -22 c-18 -12 -30 -25 -27 -30 3 -4 -27 -27 -65 -49 -42 -25 -68 -47 -64 -53 4 -7 2 -8 -5 -4 -7 5 -29 -3 -51 -18 -22 -14 -42 -26 -46 -26 -11 0 -239 141 -239 148 0 14 -17 32 -38 43 -15 7 -12 3 8 -15 47 -40 21 -30 -55 20 -67 44 -88 63 -54 50 9 -3 12 -2 9 5 -4 6 -14 8 -22 5 -17 -7 -56 12 -48 23 2 5 -3 15 -13 22 -15 13 -16 12 -3 -4 25 -32 -6 -17 -109 54 -173 119 -381 279 -375 289 3 6 0 8 -7 5 -7 -3 -40 18 -74 47 -34 29 -74 64 -90 77 -88 74 -285 267 -367 360 -211 238 -338 413 -506 699 -124 209 -294 588 -294 655 0 18 -3 23 -9 15 -4 -7 -8 -10 -8 -5 0 4 -20 73 -44 155 -67 222 -111 426 -140 637 -39 284 -41 339 -41 1104 l0 754 193 28 c636 91 1185 257 1695 511 188 94 428 229 422 238 -3 5 0 12 6 16 8 4 9 3 5 -4 -14 -23 12 -11 104 48 51 33 96 60 99 60 3 0 43 -23 88 -51z"/>
<path d="M6815 7472 c11 -5 69 -20 128 -32 l108 -23 -18 -21 c-18 -21 -18 -21 3 -3 23 19 56 18 189 -8 44 -8 94 -15 111 -15 39 0 51 -25 27 -54 -14 -16 -11 -15 10 3 34 31 36 13 2 -19 -14 -13 -23 -26 -20 -28 3 -3 15 6 28 19 35 36 68 61 74 56 3 -3 -7 -13 -21 -22 -14 -10 -24 -21 -21 -25 3 -5 -11 -24 -30 -44 -19 -20 -31 -36 -27 -36 4 0 37 29 72 65 68 69 108 91 49 28 -96 -105 -104 -126 -17 -45 44 40 48 42 27 13 -48 -66 -54 -75 -44 -69 6 4 17 3 25 -2 10 -6 11 -12 2 -22 -8 -11 -6 -17 11 -27 18 -11 20 -11 10 0 -15 15 -17 33 -4 24 5 -3 11 3 14 12 2 10 4 -6 4 -35 0 -30 -4 -47 -8 -40 -4 7 -12 9 -16 4 -4 -4 0 -13 9 -20 14 -10 17 -33 17 -136 1 -68 3 -126 6 -128 3 -3 5 112 5 256 l0 262 -22 4 c-13 2 -88 12 -168 21 -80 10 -219 33 -310 52 -208 42 -231 46 -205 35z"/>
<path d="M3155 7430 c-102 -19 -273 -44 -377 -56 l-58 -6 0 -597 c0 -687 7 -835 55 -1167 71 -490 248 -1002 485 -1399 112 -186 180 -281 191 -264 5 8 9 23 9 33 0 11 12 33 27 48 15 15 22 28 16 28 -6 0 -13 -3 -15 -7 -2 -5 -18 -21 -35 -37 l-32 -29 -39 62 -39 62 26 28 c19 21 29 26 39 19 19 -16 14 -30 -9 -23 -18 6 -20 4 -14 -14 7 -22 -10 -30 -18 -8 -3 6 -6 8 -6 2 0 -5 3 -16 8 -23 8 -13 24 -1 88 69 19 21 20 26 6 38 -13 12 -14 11 -8 -9 5 -16 4 -21 -6 -18 -8 3 -13 12 -13 20 1 12 -7 10 -35 -8 -20 -13 -44 -31 -53 -41 -17 -15 -18 -15 -18 0 0 9 5 17 10 17 6 0 10 5 10 10 0 6 -6 10 -12 10 -19 0 -38 46 -25 59 6 6 16 11 21 11 6 0 5 -5 -1 -11 -9 -9 -6 -19 10 -40 20 -28 21 -29 39 -9 19 21 26 42 6 22 -8 -8 -17 -8 -30 -1 -19 10 -19 11 3 35 13 13 17 24 10 24 -7 0 -9 5 -6 10 4 6 10 8 14 6 4 -3 8 4 8 15 2 17 -1 18 -13 9 -20 -17 -18 -1 3 24 10 12 3 8 -15 -8 -17 -17 -32 -25 -32 -19 0 18 -27 9 -55 -17 -47 -44 -25 -4 33 61 42 47 49 58 25 41 -18 -13 -40 -33 -50 -45 -10 -12 -27 -29 -37 -37 -36 -28 -2 20 58 83 63 65 76 91 19 34 -21 -20 -42 -36 -48 -37 -5 0 -10 -6 -10 -12 -1 -7 -7 -12 -14 -10 -8 2 -11 -3 -8 -12 3 -8 -2 -16 -13 -19 -32 -8 -11 25 76 120 88 96 118 138 61 84 -21 -19 -37 -30 -37 -25 0 5 23 32 51 59 28 28 60 64 72 80 12 17 -20 -14 -72 -67 -51 -54 -98 -95 -104 -91 -5 3 -7 1 -4 -5 7 -9 -36 -53 -65 -66 -10 -5 -10 -7 0 -12 14 -7 16 -24 3 -24 -5 0 -12 7 -15 16 -7 18 37 77 49 66 4 -4 5 0 4 8 -2 8 20 37 49 64 29 27 50 52 46 55 -3 3 -44 -34 -90 -84 -46 -49 -84 -84 -84 -77 0 7 5 12 11 12 6 0 9 5 7 12 -2 6 11 26 31 43 23 21 30 34 23 39 -7 4 -12 2 -12 -5 0 -7 -13 0 -30 16 -16 15 -27 32 -23 38 3 5 9 4 13 -3 6 -9 12 -9 30 0 22 12 22 13 4 23 -23 13 -34 28 -28 39 13 20 -11 4 -56 -38 -28 -26 -50 -42 -50 -37 0 6 27 35 59 66 33 32 56 57 53 57 -4 0 -21 -14 -39 -30 -18 -17 -37 -30 -42 -30 -6 0 -15 -9 -21 -21 -7 -11 -14 -18 -17 -15 -4 3 2 15 12 26 10 11 15 23 12 27 -4 4 -14 -2 -22 -13 -8 -10 -14 -14 -14 -9 0 6 6 19 14 29 12 16 17 17 30 6 11 -9 15 -9 15 -1 0 7 4 9 10 6 6 -4 7 1 3 11 -5 14 -3 16 13 10 15 -6 14 -2 -6 20 -18 19 -20 25 -8 21 12 -4 15 -2 11 9 -4 11 -16 5 -49 -28 -23 -23 -40 -47 -37 -53 3 -5 0 -4 -7 2 -11 11 -10 17 7 35 17 18 19 25 9 35 -8 7 -18 8 -27 2 -24 -15 -31 -10 -25 19 4 17 3 22 -2 14 -7 -11 -10 -10 -16 3 -8 23 -8 27 3 20 5 -3 12 -1 16 5 4 6 11 8 16 5 5 -3 6 1 3 9 -3 9 -2 16 3 16 5 0 26 21 47 48 l39 47 -59 -57 c-45 -43 -62 -53 -71 -45 -8 9 0 23 35 60 25 26 42 47 36 47 -5 0 -27 -18 -49 -40 -21 -21 -42 -37 -47 -34 -4 3 14 27 41 53 26 26 53 58 60 71 l12 25 -21 -25 c-71 -86 -118 -115 -106 -66 3 13 1 26 -4 28 -6 2 2 16 16 31 l26 28 -21 20 c-12 11 -21 25 -21 31 0 10 17 -2 58 -39 7 -7 16 -13 20 -13 4 0 -10 16 -31 36 l-37 35 25 23 c14 13 25 28 25 35 0 17 11 13 44 -16 29 -26 29 -26 -2 7 l-33 35 -37 -41 c-20 -23 -45 -46 -55 -51 -17 -9 -18 -11 -2 -26 9 -9 13 -22 9 -28 -4 -7 -12 1 -20 21 -13 30 -12 34 6 50 19 16 27 40 14 40 -3 0 -15 -10 -26 -22 l-20 -23 16 28 c9 15 14 32 11 36 -3 5 11 24 30 42 35 34 51 66 17 36 -24 -22 -36 -22 -28 0 4 10 4 14 0 11 -7 -7 -64 58 -64 72 0 4 7 11 16 14 24 9 28 7 14 -9 -11 -13 -10 -14 4 -9 22 8 20 19 -6 44 l-23 21 42 40 c23 21 39 39 36 39 -4 0 -19 -12 -35 -27 -15 -14 -31 -23 -35 -19 -5 4 4 18 20 30 15 12 27 25 27 30 0 4 -20 -9 -44 -28 -64 -53 -68 -43 -6 19 30 30 50 55 45 55 -5 0 -31 -21 -57 -47 -26 -26 -51 -44 -55 -40 -3 4 2 14 13 22 10 8 15 15 9 15 -5 0 -4 4 4 9 19 12 3 34 -21 28 -19 -5 -19 -5 -3 13 13 14 14 23 6 38 -12 23 3 43 28 35 14 -4 14 -3 1 6 -11 7 -21 6 -37 -5 -21 -13 -32 -7 -16 9 14 14 12 58 -3 64 -12 4 -6 16 27 49 24 24 38 44 33 44 -6 0 -19 -9 -30 -21 -21 -23 -60 -48 -50 -31 3 6 3 12 -1 15 -5 2 -3 3 3 1 12 -3 54 36 54 50 0 4 -10 -2 -22 -14 -28 -26 -37 -16 -11 13 21 22 21 22 1 42 -17 17 -17 20 -4 23 20 4 21 22 1 22 -8 0 -19 -9 -25 -21 -7 -11 -14 -19 -16 -16 -3 3 6 21 19 40 18 27 27 33 36 24 21 -21 11 7 -11 30 -18 20 -19 23 -5 23 9 0 17 5 17 11 0 6 -16 1 -35 -11 -34 -21 -35 -21 -35 -2 0 19 25 37 45 33 6 -1 5 3 -2 10 -10 10 -15 9 -28 -1 -22 -18 -18 4 4 24 11 10 24 15 30 12 5 -4 13 -1 17 6 4 7 4 10 -1 6 -4 -4 -14 0 -21 10 -12 15 -13 15 -14 1 0 -19 -30 -35 -30 -17 0 6 7 20 17 30 10 12 12 18 4 18 -7 0 -9 5 -6 10 5 8 11 7 21 -1 11 -9 14 -8 14 2 0 8 8 2 18 -13 16 -27 32 -37 32 -20 0 8 -41 46 -52 48 -5 1 -11 2 -15 3 -3 0 2 11 13 24 17 19 15 19 -11 -3 -16 -14 -33 -29 -37 -35 -5 -6 -8 -6 -8 1 0 6 7 17 15 24 9 7 13 20 10 28 -3 10 0 12 10 8 23 -8 18 12 -6 25 -12 6 -19 7 -16 2 3 -5 2 -15 -4 -23 -6 -10 -8 -1 -7 30 1 45 25 86 86 149 l23 23 -20 20 c-12 10 -25 17 -30 14 -4 -3 -7 5 -7 17 1 12 -7 32 -18 45 l-20 22 22 22 22 22 27 -24 c19 -17 17 -13 -6 12 l-34 37 24 20 c13 11 20 20 14 20 -18 0 -61 -42 -47 -46 16 -6 15 -20 -2 -26 -11 -4 -13 -1 -9 10 5 12 2 15 -10 10 -22 -8 -21 -3 0 19 13 13 14 19 5 22 -7 2 -10 8 -6 13 3 5 -3 9 -12 9 -16 0 -16 1 1 14 11 8 23 12 27 10 18 -11 6 15 -18 41 -45 49 -20 35 46 -25 35 -32 66 -57 69 -55 2 2 -11 16 -29 31 -62 52 -75 74 -47 74 8 0 9 3 1 8 -11 7 -34 45 -34 56 0 3 8 3 18 -1 15 -6 14 -4 -3 16 -21 24 -29 77 -13 87 5 3 4 12 -3 20 -11 14 1 20 15 7 8 -8 36 -13 36 -7 0 3 -9 15 -20 26 -15 17 -17 24 -8 30 10 5 10 8 1 8 -29 0 -37 87 -11 116 13 14 16 24 9 29 -17 10 -13 25 4 19 11 -5 13 -2 9 10 -4 9 0 18 8 21 8 3 15 13 15 21 0 9 -17 -2 -44 -28 -67 -66 -51 -31 20 41 34 35 54 61 45 58 -13 -4 -15 -2 -11 10 4 11 3 14 -6 9 -7 -5 -10 -14 -7 -21 2 -7 -11 -28 -30 -46 -19 -18 -34 -29 -34 -25 0 5 9 17 21 27 12 10 18 23 13 30 -4 8 -3 9 4 5 7 -4 12 -3 12 3 0 5 -4 13 -10 16 -15 10 -12 28 4 22 8 -3 20 1 27 9 10 12 10 15 -1 12 -8 -2 -14 2 -15 7 0 6 -4 16 -9 24 -6 10 -5 12 2 7 7 -4 12 -2 12 3 0 6 5 11 11 11 8 0 8 -4 -1 -14 -9 -12 -8 -15 8 -13 19 1 19 3 6 29 -12 23 -12 27 0 22 9 -4 13 2 11 20 -2 14 1 26 7 26 5 0 6 -10 2 -22 -7 -23 -6 -23 14 -4 12 10 19 24 15 30 -3 6 0 5 8 -3 11 -10 11 -15 2 -18 -7 -3 -13 -9 -13 -15 0 -6 9 -3 20 7 11 10 20 24 20 32 0 7 5 13 10 13 14 0 13 -23 -2 -38 -9 -9 -9 -15 1 -24 10 -11 11 -10 6 3 -11 30 52 64 157 83 53 10 102 15 109 11 6 -4 15 -2 19 4 4 7 23 13 43 14 20 1 37 5 37 10 0 10 -30 7 -145 -13z"/>
<path d="M4975 6915 c-213 -48 -376 -156 -489 -324 -52 -78 -70 -118 -96 -207 -97 -337 5 -674 268 -885 l42 -34 -89 -540 c-121 -725 -122 -732 -115 -760 3 -14 20 -36 36 -50 l30 -25 565 0 565 0 35 35 c36 36 36 36 29 103 -11 106 -186 1170 -202 1223 -3 11 15 31 53 60 125 96 237 264 280 419 14 50 18 102 18 225 0 154 -2 164 -33 255 -40 119 -94 204 -192 300 -112 110 -228 173 -379 205 -87 18 -244 18 -326 0z m355 -20 c152 -37 315 -146 414 -278 68 -91 89 -134 122 -244 56 -192 38 -397 -51 -578 -52 -106 -117 -188 -213 -268 -68 -56 -70 -59 -61 -90 8 -31 26 -137 139 -817 28 -168 54 -341 57 -385 5 -77 4 -81 -22 -105 l-27 -25 -563 0 -563 0 -27 25 c-25 23 -27 29 -21 85 3 33 14 114 25 180 11 66 29 179 41 250 11 72 30 186 42 255 11 69 37 224 57 344 l37 220 -106 105 c-93 92 -113 118 -154 201 -124 250 -111 570 31 793 124 195 284 296 553 351 44 8 223 -3 290 -19z"/>
<path d="M7490 6683 c-13 -12 -20 -23 -14 -23 5 0 14 4 20 10 6 6 10 -4 11 -31 2 -41 -1 -47 -66 -121 -18 -21 -27 -36 -20 -33 8 4 28 24 44 45 29 38 45 49 45 32 0 -5 -8 -17 -17 -28 -58 -65 -60 -69 -20 -40 44 33 51 19 7 -15 -16 -13 -30 -28 -30 -33 0 -6 14 3 30 19 27 26 30 27 30 9 0 -11 -12 -31 -26 -45 -36 -33 -116 -139 -101 -133 7 2 22 19 34 37 30 43 93 104 93 90 0 -7 -4 -14 -10 -18 -5 -3 -19 -20 -31 -38 l-22 -32 31 29 c44 41 40 18 -4 -25 -20 -18 -45 -47 -56 -64 -11 -16 5 -4 36 28 31 32 56 55 56 52 0 -6 -51 -86 -60 -95 -3 -3 -14 -18 -24 -34 -28 -44 3 -27 42 23 23 30 31 37 29 22 -2 -12 -14 -33 -28 -48 -13 -16 -33 -39 -44 -53 l-20 -25 23 19 c30 26 39 14 10 -16 -47 -49 -80 -90 -75 -94 3 -3 26 20 52 51 26 30 53 55 60 55 8 0 16 6 18 13 4 7 6 6 6 -4 1 -19 -23 -42 -33 -32 -4 4 -4 0 0 -10 5 -13 2 -16 -11 -11 -14 6 -16 3 -11 -14 5 -15 2 -22 -14 -27 -12 -4 -19 -9 -16 -13 4 -3 -4 -16 -16 -29 -12 -13 -18 -23 -14 -23 4 0 25 19 47 43 23 25 39 36 39 27 0 -12 4 -10 15 4 8 11 15 15 15 9 0 -11 -29 -39 -39 -36 -3 0 -5 -3 -3 -8 1 -5 -17 -27 -40 -49 -24 -22 -39 -40 -33 -40 5 0 33 23 62 52 29 29 53 47 53 40 0 -7 -5 -12 -11 -12 -6 0 -8 -8 -4 -19 6 -19 -10 -59 -30 -73 -6 -5 -5 -8 3 -8 7 0 11 -4 7 -10 -3 -5 -12 -7 -20 -3 -17 6 -20 -13 -4 -23 12 -7 31 19 36 50 7 44 15 27 11 -21 -3 -29 -2 -53 3 -53 4 0 10 26 13 58 7 71 20 719 15 748 -4 21 -4 21 -29 -3z"/>
<path d="M7479 5825 c-1 -14 -3 -29 -4 -35 -1 -5 -3 -24 -4 -41 -1 -19 -5 -28 -12 -23 -8 4 -8 1 -1 -12 11 -22 -2 -64 -20 -64 -10 0 -10 -2 0 -9 10 -6 11 -19 6 -46 -3 -20 -10 -32 -13 -26 -4 6 -11 3 -19 -9 -7 -12 -8 -21 -2 -25 6 -3 10 -1 10 4 0 6 5 11 11 11 14 0 1 -39 -22 -63 -12 -13 -16 -28 -13 -43 3 -12 1 -25 -5 -28 -5 -4 -8 -13 -5 -20 3 -8 -5 -23 -17 -35 -13 -12 -18 -21 -13 -21 6 0 15 5 22 12 6 6 15 9 18 5 3 -3 -6 -17 -21 -30 -16 -14 -25 -29 -21 -35 11 -17 26 -15 26 5 0 9 3 14 6 10 3 -3 3 -15 -1 -27 -7 -21 -8 -21 -26 -4 -16 14 -22 15 -32 5 -9 -10 -8 -15 5 -25 13 -10 14 -16 6 -24 -6 -6 -9 -15 -5 -18 3 -4 13 1 22 10 20 20 26 20 19 2 -3 -8 -12 -17 -21 -20 -8 -4 -13 -13 -10 -21 4 -9 1 -12 -9 -8 -7 3 -14 1 -14 -5 0 -6 6 -12 12 -14 9 -3 8 -10 -5 -22 -9 -10 -22 -27 -28 -38 -10 -18 -9 -20 7 -14 20 8 24 12 -61 -79 -111 -120 -212 -232 -224 -250 -8 -11 1 -4 18 15 218 237 310 322 217 201 -26 -34 -52 -58 -58 -55 -6 4 -9 1 -6 -6 5 -17 28 -25 28 -10 0 6 11 23 25 38 14 15 25 23 25 19 0 -8 -22 -49 -30 -57 -3 -3 -16 -22 -28 -42 -21 -37 -18 -50 6 -26 9 9 12 9 12 -2 0 -7 3 -10 6 -7 4 4 2 12 -4 20 -9 10 -5 19 13 39 13 14 22 28 19 31 -2 2 4 10 13 18 17 13 17 13 3 -5 -8 -11 -14 -21 -12 -23 7 -10 0 -43 -9 -40 -6 1 -14 -4 -17 -12 -3 -8 0 -11 7 -7 8 5 8 0 -1 -19 -7 -15 -14 -21 -18 -15 -7 11 -27 -5 -29 -22 -1 -5 -4 -8 -8 -7 -5 0 -7 7 -7 15 2 13 0 13 -15 0 -24 -22 -38 -20 -19 2 24 27 30 52 11 45 -11 -4 -14 -2 -11 8 3 8 12 14 21 14 8 0 19 4 24 9 4 5 3 6 -4 2 -8 -4 -13 -2 -13 5 0 15 -38 -18 -53 -46 -9 -18 -8 -18 5 -7 22 17 34 -3 15 -23 -13 -13 -17 -13 -27 1 -7 8 -16 12 -19 9 -3 -4 5 -15 19 -25 20 -15 23 -21 12 -32 -10 -10 -15 -8 -28 10 -8 12 -20 19 -26 16 -7 -4 -6 -9 1 -13 8 -5 4 -14 -10 -27 -22 -19 -22 -19 -15 0 6 19 6 19 -11 3 -21 -18 -28 -57 -11 -57 6 0 9 3 5 6 -3 3 9 19 26 34 49 44 59 18 12 -29 -51 -49 -65 -68 -59 -74 4 -4 107 101 130 132 1 1 8 0 14 -4 8 -5 4 -12 -10 -22 -16 -11 -19 -18 -10 -27 8 -8 21 0 50 32 22 24 40 38 40 31 0 -6 -34 -46 -76 -89 -52 -53 -72 -80 -63 -86 8 -4 10 -3 5 4 -4 7 -3 12 2 12 5 0 9 -13 8 -29 -1 -20 -22 -51 -71 -107 -39 -43 -65 -75 -59 -71 7 4 17 -5 24 -23 7 -17 16 -30 21 -30 5 0 9 -5 9 -12 0 -6 -9 -3 -20 7 -11 10 -20 14 -20 9 0 -5 -14 -25 -30 -44 -27 -33 -29 -33 -30 -12 0 13 4 20 10 17 6 -3 10 0 10 8 0 7 9 23 21 36 12 12 18 25 14 29 -4 4 -15 -3 -25 -15 -10 -13 -23 -23 -30 -23 -6 0 -8 -5 -5 -10 4 -6 1 -18 -6 -26 -9 -11 -9 -18 -1 -26 15 -15 15 -28 2 -28 -5 0 -10 6 -10 14 0 8 -6 16 -12 19 -10 3 -10 8 2 23 8 10 -3 3 -23 -16 -21 -19 -35 -40 -33 -46 3 -7 -6 -22 -20 -35 -13 -12 -22 -25 -19 -28 3 -2 21 11 40 29 19 18 38 31 41 27 4 -3 -11 -23 -33 -44 -41 -40 -103 -116 -103 -127 0 -4 21 17 46 46 62 70 105 110 112 103 3 -3 -10 -21 -28 -40 -19 -19 -31 -35 -26 -35 4 0 19 14 33 30 14 17 31 29 37 27 6 -3 19 2 29 11 20 18 22 5 3 -21 -8 -11 -20 -15 -32 -11 -15 5 -16 4 -4 -4 11 -9 12 -17 4 -39 -6 -15 -15 -27 -21 -26 -10 2 -108 -89 -148 -138 l-20 -24 29 25 c16 14 51 49 79 78 28 29 52 50 55 47 3 -3 -4 -15 -15 -28 -11 -12 -28 -37 -37 -54 -9 -18 -22 -32 -28 -30 -7 1 -13 -7 -14 -19 -3 -41 -188 -299 -215 -299 -5 0 -8 -2 -6 -5 3 -8 -52 -65 -57 -59 -3 3 14 26 38 52 24 26 40 50 35 52 -4 3 -20 -10 -34 -29 -16 -21 -32 -33 -41 -29 -7 3 -11 9 -8 15 3 5 8 7 11 5 2 -3 27 20 55 49 37 39 54 51 63 44 9 -8 18 -3 31 17 10 16 17 31 16 36 -1 4 2 7 7 7 4 0 21 19 36 43 16 23 37 54 47 70 10 15 14 27 9 27 -5 0 -24 -24 -42 -52 -33 -53 -102 -137 -105 -128 0 3 -20 -12 -43 -33 -23 -21 -47 -35 -53 -31 -7 4 -8 3 -4 -4 4 -6 -3 -19 -15 -29 -12 -10 -31 -29 -43 -42 -54 -62 -128 -148 -142 -163 -9 -9 -23 -14 -32 -10 -14 5 -15 4 -2 -10 8 -9 18 -12 21 -6 3 5 12 2 19 -7 11 -13 10 -15 -4 -9 -9 3 -16 1 -16 -5 0 -6 5 -11 12 -11 6 0 8 -3 4 -7 -4 -5 -14 0 -21 11 -16 22 -47 14 -43 -10 2 -9 -3 -19 -11 -22 -9 -3 -11 0 -6 8 5 8 4 11 -3 6 -6 -4 -9 -12 -6 -19 2 -7 -4 -22 -16 -32 -14 -13 -20 -14 -20 -5 0 7 -3 11 -6 8 -3 -4 2 -21 11 -38 l17 -32 23 22 c28 27 22 50 -6 24 -38 -34 -29 -6 10 31 22 22 37 44 33 49 -3 6 2 5 11 -2 14 -12 14 -16 2 -28 -7 -8 -18 -14 -24 -14 -12 0 -15 -13 -4 -24 4 -3 27 13 52 36 28 26 23 18 -14 -20 -33 -35 -72 -72 -86 -83 -26 -18 -27 -18 -49 1 -20 17 -21 22 -9 37 12 16 11 16 -8 0 l-21 -19 21 -21 c12 -12 26 -21 32 -19 5 2 1 -6 -9 -17 -21 -23 -35 -29 -17 -7 9 11 6 14 -14 14 -16 0 -36 -14 -60 -40 -33 -38 -35 -39 -52 -22 -17 17 -18 16 -27 -9 -6 -15 -16 -27 -23 -27 -7 0 -13 -4 -13 -10 0 -18 29 -10 40 10 8 14 17 19 30 15 11 -3 32 1 47 10 l28 17 -24 -19 c-14 -10 -38 -23 -55 -28 -19 -6 -31 -17 -31 -27 0 -10 -7 -23 -15 -30 -12 -11 -12 -11 -1 5 11 14 11 17 -2 17 -9 0 -28 11 -43 25 -33 30 -38 31 -24 5 6 -11 15 -20 21 -20 6 0 7 -4 4 -10 -3 -5 -1 -10 4 -10 6 0 11 -5 11 -11 0 -6 -9 -8 -20 -4 -18 6 -19 4 -10 -22 10 -27 10 -28 -7 -8 -33 37 -103 87 -115 82 -8 -4 -7 -6 3 -6 17 -1 99 -84 99 -100 0 -5 -4 -13 -10 -16 -6 -4 -7 1 -3 11 4 12 3 15 -5 10 -12 -7 -78 30 -101 57 -11 15 -15 14 -37 -10 -13 -14 -24 -32 -24 -39 0 -8 -6 -14 -13 -14 -7 0 -26 -14 -43 -31 -24 -27 -26 -30 -6 -20 12 6 22 16 22 21 0 6 3 9 8 8 4 -1 20 5 36 13 19 11 25 18 17 24 -17 10 16 46 35 38 21 -8 17 -26 -13 -48 -14 -11 -31 -25 -37 -31 -6 -5 -25 -19 -43 -29 -18 -10 -31 -21 -29 -24 2 -3 -5 -14 -16 -23 -20 -20 -27 -1 -6 20 8 8 8 12 1 12 -6 0 -18 -11 -27 -25 -9 -14 -32 -39 -51 -57 -23 -20 -31 -34 -24 -39 8 -5 8 -8 0 -13 -6 -4 -11 -3 -11 3 0 6 -8 7 -17 4 -19 -7 64 92 155 185 29 30 51 57 49 59 -5 4 -117 -110 -163 -167 -16 -19 -41 -46 -56 -61 -29 -27 -39 -51 -13 -29 11 9 15 9 15 1 0 -7 5 -9 10 -6 6 3 10 1 10 -5 0 -7 -6 -10 -14 -7 -8 3 -24 -6 -37 -19 -13 -14 -29 -22 -35 -20 -7 3 -14 0 -16 -5 -2 -6 -11 -11 -21 -13 -9 -1 -30 -15 -47 -31 -16 -16 -33 -25 -37 -22 -3 4 -15 -1 -25 -10 -18 -16 -18 -16 -12 0 10 26 -9 20 -39 -11 -19 -20 -26 -35 -21 -48 5 -15 4 -16 -4 -4 -9 12 -14 11 -34 -5 -13 -11 -8 -3 11 18 19 20 32 40 28 43 -4 4 -29 -17 -57 -47 -27 -30 -50 -49 -50 -43 0 6 9 19 21 30 11 10 26 28 31 39 l11 20 -24 -20 c-13 -11 -28 -26 -32 -32 -4 -7 -13 -13 -19 -13 -7 0 3 16 22 35 20 21 40 33 49 30 15 -6 51 21 51 38 0 6 -11 0 -25 -13 -14 -13 -25 -20 -25 -16 0 13 142 167 148 161 3 -3 -5 -16 -18 -30 -13 -14 -19 -25 -14 -25 5 0 16 9 24 20 8 11 20 20 26 20 7 0 22 12 34 27 17 22 23 25 30 13 6 -10 5 -17 -6 -20 -9 -3 -14 -10 -12 -14 2 -5 -5 -10 -16 -12 -19 -3 -60 -36 -84 -67 -7 -9 -17 -15 -21 -13 -9 6 -45 -53 -37 -62 4 -3 35 26 71 64 35 38 64 64 65 59 0 -6 -18 -29 -40 -50 -45 -44 -49 -54 -19 -52 11 1 43 25 71 55 27 29 52 51 54 49 2 -2 -5 -12 -16 -22 -11 -10 -20 -23 -20 -28 0 -6 8 -3 18 6 10 10 21 15 24 12 3 -3 11 3 19 12 13 16 12 17 -3 4 -21 -15 -24 -2 -5 18 10 11 10 13 0 7 -34 -19 -4 17 90 108 56 55 93 92 81 83 -26 -21 -41 -22 -24 -2 10 12 10 15 -4 15 -9 0 -15 -4 -13 -8 3 -12 -61 -71 -68 -63 -3 3 -3 -1 0 -10 3 -9 -29 -51 -96 -119 -55 -58 -92 -91 -81 -75 11 17 54 65 95 108 41 42 71 77 66 77 -4 0 -11 -5 -14 -11 -4 -6 -13 -8 -21 -5 -7 3 -16 0 -20 -6 -4 -7 -9 -6 -15 3 -5 8 -3 16 4 21 8 5 9 10 1 18 -15 15 -39 4 -54 -26 -7 -13 -17 -24 -21 -24 -14 0 -22 22 -10 29 7 5 3 15 -13 30 -19 17 -26 20 -32 9 -4 -7 -4 -10 1 -6 9 8 40 -20 31 -29 -3 -3 -14 0 -23 8 -16 13 -17 12 -5 -3 8 -9 11 -22 7 -28 -4 -6 -3 -10 2 -9 22 4 35 -2 30 -15 -4 -10 -1 -13 9 -9 7 3 14 10 14 16 0 6 3 8 6 5 8 -9 -14 -48 -27 -48 -10 0 -79 68 -79 77 0 3 7 3 14 0 10 -4 13 -1 9 9 -4 11 -14 6 -45 -21 -21 -20 -43 -33 -49 -29 -14 8 -140 -104 -235 -210 -30 -34 -54 -55 -54 -48 0 15 180 209 195 211 6 1 31 21 55 46 28 28 50 43 60 40 10 -3 26 6 41 22 l24 28 -27 -24 c-35 -31 -47 -21 -17 13 14 17 29 24 40 21 10 -3 20 -1 23 4 4 6 14 7 24 4 16 -6 16 -6 0 11 -23 22 -22 29 2 51 18 16 20 16 36 1 15 -15 15 -19 -1 -44 l-16 -27 21 24 c11 13 23 21 27 17 3 -3 -2 -15 -12 -26 -11 -12 -13 -20 -6 -20 7 0 9 -5 6 -10 -4 -7 -14 -6 -28 1 -21 11 -21 10 -5 -6 15 -17 18 -17 46 4 30 21 31 21 37 1 7 -20 25 -28 25 -10 0 6 -4 10 -9 10 -21 0 -20 33 0 51 12 11 25 19 29 19 5 0 11 8 14 17 8 19 -5 10 -71 -51 -18 -17 -33 -25 -33 -19 0 6 7 16 15 23 13 11 10 17 -22 46 l-36 33 -36 -40 c-20 -23 -99 -98 -176 -167 -77 -70 -151 -139 -163 -154 -13 -16 -28 -28 -34 -28 -6 0 25 36 68 81 44 44 78 85 76 91 -1 6 2 16 8 23 8 10 7 14 -2 18 -9 3 -7 11 10 29 12 13 22 30 22 36 0 7 5 12 12 12 6 0 8 3 4 7 -8 8 -56 -41 -56 -58 0 -8 -5 -8 -16 2 -14 11 -13 14 8 25 13 8 19 13 14 14 -10 0 -86 -50 -86 -56 0 -2 3 -3 8 -3 28 5 20 -6 -46 -62 -10 -8 -20 -6 -40 12 -15 13 -29 25 -31 27 -2 1 -1 5 2 9 4 3 18 -4 32 -17 23 -22 27 -22 41 -8 8 8 16 21 17 29 2 8 6 19 10 26 11 18 -11 26 -28 10 -8 -9 -20 -17 -27 -20 -9 -3 -7 -9 7 -21 25 -19 7 -21 -19 -1 -19 14 -18 15 7 41 15 15 27 31 27 37 0 5 -18 -9 -40 -32 -41 -42 -47 -55 -30 -66 6 -3 -3 -17 -19 -31 -18 -15 -28 -31 -24 -39 8 -23 26 -18 20 6 -3 12 -3 18 0 15 4 -3 16 3 28 14 19 18 23 19 28 6 8 -20 31 -20 51 0 15 14 17 14 32 -1 9 -9 23 -14 31 -11 8 3 11 1 8 -4 -3 -6 -15 -10 -25 -10 -14 0 -18 -5 -13 -17 4 -11 3 -14 -5 -9 -13 8 -72 -50 -72 -70 0 -6 -10 -19 -22 -30 -12 -10 -18 -13 -13 -5 6 11 4 13 -8 8 -24 -9 -50 2 -38 17 6 7 4 16 -6 25 -12 11 -14 10 -11 -5 2 -11 -2 -18 -9 -17 -16 4 -17 -9 -1 -25 15 -15 3 -15 -21 0 -19 11 -18 14 15 50 32 36 37 58 12 58 -5 0 -8 -6 -5 -14 6 -14 -59 -84 -68 -74 -3 3 8 17 25 31 36 31 38 37 8 30 -13 -3 -20 -2 -16 2 4 4 0 14 -10 21 -9 7 -12 14 -6 14 6 0 17 -7 24 -15 10 -12 16 -13 27 -4 8 7 12 18 9 25 -3 7 0 16 6 20 7 5 8 2 3 -7 -5 -8 4 -3 18 10 28 25 34 41 18 41 -5 0 -12 -9 -16 -19 -3 -11 -12 -18 -19 -15 -17 7 -40 -22 -30 -38 6 -9 3 -9 -9 1 -17 13 -16 15 4 38 26 27 15 31 -15 6 -19 -15 -19 -15 1 7 19 20 24 21 38 10 21 -18 30 -6 10 14 -22 22 -26 21 -65 -19 -19 -19 -28 -35 -21 -35 7 0 9 -5 5 -11 -4 -7 -9 -8 -17 0 -7 7 -6 15 3 26 7 8 10 18 7 22 -4 3 -15 -5 -26 -18 -11 -13 -20 -19 -21 -14 0 19 77 88 90 80 6 -4 17 1 25 11 7 11 17 15 21 11 5 -4 2 -12 -6 -18 -13 -8 -13 -10 0 -19 25 -16 25 -16 90 54 41 45 40 54 -3 18 -16 -14 -20 -13 -47 13 l-30 29 -45 -50 c-24 -27 -44 -43 -45 -36 0 6 0 15 0 20 0 4 5 7 10 7 6 0 9 3 8 6 -2 3 12 19 30 34 24 20 30 30 21 36 -10 6 -10 11 1 26 13 16 12 16 -8 -1 -22 -19 -31 -43 -12 -31 6 3 10 3 10 -2 0 -4 -25 -28 -55 -53 -59 -48 -64 -57 -39 -67 13 -5 11 -10 -11 -33 -15 -16 -24 -33 -21 -39 5 -7 1 -8 -9 -5 -14 6 -14 8 0 28 48 65 26 71 -35 9 -53 -54 -60 -58 -34 -18 20 31 12 32 -16 3 -11 -12 -22 -19 -25 -16 -3 3 0 12 8 20 8 7 19 24 26 36 10 19 15 21 27 11 13 -10 21 -6 52 27 l37 39 -38 -35 c-29 -26 -40 -31 -49 -22 -9 9 -9 12 3 12 9 0 26 12 40 26 23 26 23 26 2 13 -13 -8 -23 -17 -23 -21 0 -5 -4 -8 -10 -8 -5 0 -7 8 -4 18 3 9 -1 7 -8 -6 -8 -12 -17 -19 -21 -16 -4 4 -7 0 -7 -9 0 -9 -7 -17 -16 -17 -8 0 -12 -4 -9 -10 3 -5 -1 -10 -9 -10 -8 0 -20 -9 -25 -19 -12 -22 -4 -28 139 -126 97 -66 428 -275 435 -275 2 0 42 24 87 53 46 29 105 66 133 82 27 16 44 30 37 33 -6 2 -12 8 -12 14 0 6 6 6 15 -2 17 -14 56 8 245 138 241 165 280 194 274 204 -4 7 -2 8 5 4 6 -4 43 19 89 55 160 129 173 142 160 151 -9 6 -6 7 7 4 16 -5 47 19 142 109 120 114 176 177 348 390 94 116 99 123 210 295 242 373 420 774 519 1165 64 253 134 675 112 675 -3 0 -7 -11 -7 -25z m-2166 -2940 c10 -14 13 -25 8 -25 -6 0 -15 8 -20 18 -8 13 -13 14 -19 4 -5 -7 -15 -10 -23 -7 -9 3 -24 -3 -34 -15 -19 -22 -8 -28 14 -7 11 10 14 10 18 0 6 -18 23 -16 23 2 0 17 16 20 25 5 4 -6 -2 -18 -13 -28 -11 -9 -42 -42 -69 -72 -26 -31 -73 -78 -103 -105 -56 -51 -51 -37 8 23 18 19 31 37 28 40 -8 8 45 63 55 56 4 -2 11 1 15 7 4 8 3 9 -4 5 -7 -4 -12 -2 -12 4 0 6 8 10 18 8 9 -2 16 3 15 10 -2 6 2 12 7 12 6 0 10 5 10 10 0 17 -16 11 -45 -16 -22 -20 -30 -23 -36 -12 -5 8 -3 15 8 19 9 3 18 16 20 30 4 27 -7 18 -160 -139 -116 -119 -139 -124 -32 -8 99 108 195 194 195 175 0 -8 7 -6 19 5 11 10 25 15 31 11 6 -3 10 -3 9 2 -5 30 18 24 44 -12z"/>
<path d="M3689 3988 c-35 -34 -82 -78 -104 -99 l-40 -38 -19 27 c-19 27 -19 27 0 11 18 -16 21 -15 62 27 43 44 48 63 6 23 -13 -12 -28 -18 -34 -14 -9 6 -9 10 1 16 11 7 10 9 -3 9 -10 0 -18 -7 -18 -15 0 -8 5 -15 11 -15 5 0 8 -4 4 -10 -8 -13 -36 0 -28 14 3 6 -3 2 -15 -8 -13 -11 -19 -24 -14 -30 4 -7 -1 -3 -10 7 -21 22 -22 33 -6 43 8 5 9 1 4 -12 -5 -14 1 -11 20 9 14 16 23 31 20 34 -3 4 -13 -2 -21 -13 -14 -19 -14 -18 -15 3 0 12 5 25 10 28 6 3 10 11 10 18 0 6 -8 0 -17 -13 -10 -14 -17 -28 -15 -32 1 -5 -2 -8 -7 -8 -22 0 -19 -35 8 -74 51 -73 113 -148 118 -142 3 3 0 14 -8 23 -13 16 -12 17 4 4 10 -8 15 -21 12 -28 -5 -16 95 -138 229 -280 142 -151 482 -443 640 -553 52 -35 55 -35 91 33 20 36 10 34 -22 -3 -31 -38 -52 -40 -24 -2 49 66 51 66 63 54 7 -7 17 -12 23 -12 5 0 1 7 -9 15 -19 14 -19 15 -1 35 10 11 23 20 28 20 6 0 2 -9 -7 -19 -11 -12 -14 -21 -7 -26 6 -3 11 1 11 10 0 11 5 15 15 11 13 -4 14 -2 5 14 -12 22 -25 26 -35 10 -3 -5 -11 -10 -17 -10 -6 0 -5 7 3 18 13 15 12 16 -3 4 -10 -8 -14 -20 -11 -29 5 -12 2 -15 -9 -10 -10 3 -19 0 -22 -9 -3 -8 -11 -14 -17 -14 -8 0 -8 4 1 15 10 12 10 18 0 30 -16 20 -30 19 -30 -1 0 -14 -3 -14 -15 -4 -9 7 -14 19 -11 26 9 23 -6 23 -31 -2 -14 -14 -22 -28 -18 -32 4 -4 10 -1 12 6 7 18 23 15 44 -10 10 -13 18 -18 19 -12 0 7 7 14 15 18 13 5 14 2 5 -15 -8 -14 -8 -24 -1 -33 8 -9 5 -19 -10 -34 -11 -12 -23 -22 -27 -22 -3 0 3 10 15 22 l22 21 -25 20 c-24 18 -26 18 -44 2 -11 -10 -17 -22 -14 -26 10 -17 -13 -9 -31 11 -20 22 -7 28 14 8 11 -11 12 -8 6 12 -4 14 -12 27 -17 28 -5 2 3 20 18 40 25 36 25 36 -16 -6 -24 -25 -38 -47 -34 -54 4 -7 -6 -2 -23 10 -16 11 -30 28 -30 36 0 8 4 13 9 10 5 -3 6 -9 4 -13 -9 -13 34 -5 52 10 9 8 27 28 40 44 l23 29 15 -23 c15 -21 17 -22 36 -5 15 14 21 15 27 5 6 -10 10 -9 14 4 5 11 3 14 -5 9 -8 -5 -9 -2 -5 9 8 22 1 21 -25 -3 -21 -19 -21 -19 -44 7 l-23 27 -26 -24 c-14 -13 -28 -21 -31 -17 -4 3 -15 2 -25 -4 -13 -6 -19 -6 -19 1 0 16 4 25 12 23 3 -1 12 5 20 15 12 15 11 16 -4 3 -10 -7 -18 -10 -18 -6 0 4 -7 2 -15 -5 -8 -7 -12 -16 -9 -21 3 -5 -2 -6 -10 -3 -22 9 -21 10 29 56 25 23 43 43 41 45 -2 2 -27 -17 -55 -43 -77 -70 -89 -78 -106 -64 -8 7 -12 16 -9 21 3 5 -1 6 -8 4 -8 -3 -27 8 -43 25 -16 16 -23 31 -17 31 26 3 31 4 38 11 4 4 -1 10 -10 14 -10 4 -22 2 -29 -5 -20 -20 -31 -12 -12 9 10 11 13 20 7 20 -6 0 -15 -8 -21 -17 -9 -17 -11 -17 -28 -1 -16 17 -16 19 15 50 17 18 55 62 83 98 l51 65 -61 -65 c-34 -36 -65 -65 -71 -65 -5 0 -15 -7 -22 -15 -11 -12 -11 -12 5 -1 9 8 17 9 17 3 0 -5 -11 -17 -24 -26 -46 -30 -40 4 10 55 61 61 52 64 -12 4 -26 -25 -51 -45 -56 -45 -14 0 -9 15 12 38 11 12 20 24 20 28 0 4 8 13 18 20 9 7 12 14 6 14 -7 0 -28 -18 -48 -40 -20 -22 -36 -39 -37 -38 0 2 -2 13 -3 26 -2 16 1 21 11 18 8 -3 17 2 20 12 3 9 15 27 26 40 17 18 18 25 8 35 -10 10 -12 8 -9 -8 2 -14 -2 -20 -14 -19 -17 2 -22 -12 -19 -46 2 -13 1 -13 -9 0 -9 13 -11 13 -20 0 -5 -8 -7 -21 -5 -29 4 -11 3 -11 -10 -1 -18 15 -3 50 21 50 8 0 12 5 9 10 -10 16 -19 12 -36 -16 -9 -15 -19 -22 -22 -16 -8 11 42 64 53 57 4 -3 13 2 20 10 11 13 10 14 -6 9 -14 -5 -11 1 10 24 33 36 48 39 66 17 9 -11 10 -18 1 -29 -9 -10 -8 -15 3 -19 10 -4 13 -1 10 7 -3 7 2 19 11 26 8 7 15 18 15 24 0 6 -5 4 -10 -4 -8 -12 -13 -11 -33 8 l-24 23 -67 -67 -68 -66 -23 22 c-14 13 -21 28 -18 38 5 11 2 14 -10 9 -15 -5 -16 -3 -7 13 16 30 12 35 -11 14 l-22 -19 17 33 c9 18 21 30 25 27 5 -2 25 12 45 32 29 30 33 39 21 46 -11 6 -24 -3 -47 -29 -45 -51 -70 -74 -81 -74 -5 0 17 30 49 68 l58 67 -55 -52 c-51 -50 -79 -68 -63 -41 5 8 2 9 -11 4 -16 -6 -16 -4 -4 11 13 15 12 16 -9 11 -22 -6 -22 -6 -5 25 10 18 27 43 38 57 11 14 4 10 -15 -10 -19 -19 -39 -35 -45 -35 -5 -1 -9 -7 -7 -14 1 -7 -2 -10 -8 -6 -19 12 -10 25 73 106 l82 82 -74 -67 c-117 -105 -151 -115 -58 -17 62 66 51 66 -16 1 -51 -50 -52 -50 -71 -30 -20 20 -20 20 69 110 50 50 92 94 95 98 4 6 -71 -63 -126 -115 -23 -23 -45 -30 -43 -15 1 4 36 40 79 80 87 80 96 97 15 28 -50 -43 -52 -44 -68 -26 -15 18 -15 20 2 29 10 6 21 7 25 4 3 -3 6 -1 6 5 0 7 -6 12 -13 12 -17 0 -52 -38 -44 -47 8 -8 -11 -33 -25 -33 -6 0 -5 7 2 16 11 12 11 15 -1 12 -8 -2 -13 4 -13 15 2 19 -11 23 -22 6 -4 -7 1 -16 10 -21 14 -8 15 -13 5 -24 -18 -21 -31 -17 -23 9 6 21 6 21 -13 5 -34 -31 -36 -20 -4 17 17 20 31 39 31 44 0 4 11 14 24 21 14 7 27 19 30 27 9 21 -23 1 -64 -42 -44 -46 -66 -59 -76 -43 -4 6 -3 8 2 5 5 -3 56 44 113 104 57 60 108 106 114 102 6 -3 7 -1 3 5 -4 7 -8 12 -10 12 -1 0 -31 -28 -67 -62z"/>
</g>
</svg>
